<?xml version="1.0" encoding="UTF-8"?> <svg xmlns="http://www.w3.org/2000/svg" width="560.344970703125px" height="121.6174835205078px" viewBox="-30.1724853515625 14.191258239746098 560.344970703125 121.6174835205078" style="background: rgba(0, 0, 0, 0);" preserveAspectRatio="xMidYMid"><defs><filter id="editing-extrusion" x="-100%" y="-100%" width="300%" height="300%"><feFlood result="color1" flood-color="#444"></feFlood><feConvolveMatrix order="8,8" divisor="1" kernelMatrix="1 0 0 0 0 0 0 0 0 1 0 0 0 0 0 0 0 0 1 0 0 0 0 0 0 0 0 1 0 0 0 0 0 0 0 0 1 0 0 0 0 0 0 0 0 1 0 0 0 0 0 0 0 0 1 0 0 0 0 0 0 0 0 1" in="SourceAlpha" result="extrude"></feConvolveMatrix><feComposite in="color1" in2="extrude" result="comp-extrude" operator="in"></feComposite><feOffset dx="4" dy="4" in="comp-extrude" result="offset-extrude"></feOffset><feMerge><feMergeNode in="offset-extrude"></feMergeNode><feMergeNode in="SourceGraphic"></feMergeNode></feMerge></filter></defs><g filter="url(#editing-extrusion)"><g transform="translate(49.934996128082275, 104.79000091552734)"><path d="M6.21-31.17L6.21-31.17L6.21-31.17Q4.03-32.83 4.03-36.38L4.03-36.38L4.03-36.38Q4.03-39.94 6.37-41.79L6.37-41.79L6.37-41.79Q8.70-43.65 12.74-43.65L12.74-43.65L12.74-43.65Q15.30-43.65 21.38-42.75L21.38-42.75L25.73-42.11L25.73-42.11Q27.90-41.86 30.18-41.86L30.18-41.86L30.18-41.86Q32.45-41.86 33.98-42.82L33.98-42.82L33.98-42.82Q36.29-40.77 36.29-37.82L36.29-37.82L36.29-37.82Q36.29-34.88 33.66-32.77L33.66-32.77L33.66-32.77Q30.98-30.53 27.52-30.53L27.52-30.53L27.52-30.53Q25.86-30.53 23.17-30.98L23.17-30.98L23.17-30.98Q20.03-21.12 20.03-14.27L20.03-14.27L20.03-14.27Q20.03-7.42 23.49-3.84L23.49-3.84L23.49-3.84Q21.89-0.96 19.52 0.16L19.52 0.16L19.52 0.16Q17.15 1.28 13.60 1.28L13.60 1.28L13.60 1.28Q10.05 1.28 7.84-0.67L7.84-0.67L7.84-0.67Q5.63-2.62 5.63-6.66L5.63-6.66L5.63-6.66Q5.63-11.33 8.19-19.01L8.19-19.01L8.19-19.01Q10.75-26.62 14.59-32.45L14.59-32.45L14.59-32.45Q12.74-32.64 10.82-32.64L10.82-32.64L10.82-32.64Q6.85-32.64 6.21-31.17ZM57.22-10.82L57.22-10.82L57.22-10.82Q58.82-9.73 58.82-7.33L58.82-7.33L58.82-7.33Q58.82-4.93 57.60-3.39L57.60-3.39L57.60-3.39Q56.38-1.86 54.40-0.83L54.40-0.83L54.40-0.83Q50.30 1.28 45.89 1.28L45.89 1.28L45.89 1.28Q41.47 1.28 38.88 0.32L38.88 0.32L38.88 0.32Q36.29-0.64 34.56-2.43L34.56-2.43L34.56-2.43Q31.17-5.82 31.17-12.03L31.17-12.03L31.17-12.03Q31.17-21.70 36.42-27.58L36.42-27.58L36.42-27.58Q42.05-33.92 51.84-33.92L51.84-33.92L51.84-33.92Q57.92-33.92 60.93-31.36L60.93-31.36L60.93-31.36Q63.17-29.44 63.17-26.30L63.17-26.30L63.17-26.30Q63.17-15.04 43.71-15.04L43.71-15.04L43.71-15.04Q43.46-13.38 43.46-11.97L43.46-11.97L43.46-11.97Q43.46-9.02 44.77-7.90L44.77-7.90L44.77-7.90Q46.08-6.78 48.51-6.78L48.51-6.78L48.51-6.78Q50.94-6.78 53.54-7.90L53.54-7.90L53.54-7.90Q56.13-9.02 57.22-10.82ZM44.16-17.79L44.16-17.79L44.16-17.79Q48.70-17.79 51.33-20.61L51.33-20.61L51.33-20.61Q53.95-23.30 53.95-27.58L53.95-27.58L53.95-27.58Q53.95-29.06 53.41-29.86L53.41-29.86L53.41-29.86Q52.86-30.66 51.78-30.66L51.78-30.66L51.78-30.66Q50.69-30.66 49.76-30.24L49.76-30.24L49.76-30.24Q48.83-29.82 47.87-28.42L47.87-28.42L47.87-28.42Q45.50-25.22 44.16-17.79ZM96.77-26.62L96.77-26.62L96.77-26.62Q96.77-23.94 94.53-22.27L94.53-22.27L94.53-22.27Q92.29-20.61 88.64-20.61L88.64-20.61L88.64-20.61Q87.10-20.61 86.21-21.06L86.21-21.06L86.21-21.06Q86.91-22.72 87.14-24.80L87.14-24.80L87.14-24.80Q87.36-26.88 87.36-27.46L87.36-27.46L87.36-27.46Q87.36-30.14 85.50-30.14L85.50-30.14L85.50-30.14Q84.22-30.14 82.78-28.54L82.78-28.54L82.78-28.54Q81.34-26.94 80.13-24.45L80.13-24.45L80.13-24.45Q77.44-18.69 77.44-12.86L77.44-12.86L77.44-12.86Q77.44-9.66 78.66-8.22L78.66-8.22L78.66-8.22Q79.87-6.78 82.56-6.78L82.56-6.78L82.56-6.78Q86.27-6.78 89.22-9.86L89.22-9.86L89.22-9.86Q90.05-10.82 90.50-11.90L90.50-11.90L90.50-11.90Q92.93-10.62 92.93-7.10L92.93-7.10L92.93-7.10Q92.93-3.52 88.96-1.15L88.96-1.15L88.96-1.15Q84.86 1.28 78.34 1.28L78.34 1.28L78.34 1.28Q65.34 1.28 65.34-12.48L65.34-12.48L65.34-12.48Q65.34-22.53 71.04-28.29L71.04-28.29L71.04-28.29Q76.54-33.92 86.66-33.92L86.66-33.92L86.66-33.92Q96.77-33.92 96.77-26.62ZM130.69-7.10L130.69-7.10L130.69-7.10Q130.69-4.29 133.57-3.46L133.57-3.46L133.57-3.46Q132.86-1.09 130.11 0.19L130.11 0.19L130.11 0.19Q127.81 1.28 125.28 1.28L125.28 1.28L125.28 1.28Q122.75 1.28 121.44 0.61L121.44 0.61L121.44 0.61Q120.13-0.06 119.42-1.15L119.42-1.15L119.42-1.15Q118.27-2.82 118.27-5.95L118.27-5.95L118.27-5.95Q118.27-7.81 119.30-12.93L119.30-12.93L120.19-17.79L120.19-17.79Q121.28-23.36 121.28-25.41L121.28-25.41L121.28-25.41Q121.28-28.99 119.30-28.99L119.30-28.99L119.30-28.99Q116.80-28.99 115.20-25.34L115.20-25.34L115.20-25.34Q114.56-23.94 114.11-21.82L114.11-21.82L109.76 0L96.90 1.28L105.92-44.80L118.78-46.08L118.27-43.52L118.27-43.52Q116.48-33.66 114.94-30.34L114.94-30.34L114.94-30.34Q118.53-33.92 125.12-33.92L125.12-33.92L125.12-33.92Q132.10-33.92 133.38-29.31L133.38-29.31L133.38-29.31Q133.82-27.84 133.82-26.56L133.82-26.56L133.82-26.56Q133.82-25.28 133.73-24.29L133.73-24.29L133.73-24.29Q133.63-23.30 133.31-21.50L133.31-21.50L132.48-16.90L131.01-9.66L131.01-9.66Q130.69-8.19 130.69-7.10ZM165.82 1.28L165.82 1.28L165.82 1.28Q158.08 1.28 158.08-4.74L158.08-4.74L158.08-4.74Q158.14-6.40 158.66-9.22L158.66-9.22L159.81-15.10L159.81-15.10Q161.54-23.42 161.54-25.28L161.54-25.28L161.54-25.28Q161.54-28.99 159.36-28.99L159.36-28.99L159.36-28.99Q155.71-28.99 153.79-19.46L153.79-19.46L150.02 0L137.15 1.28L143.81-32.70L154.30-33.92L153.28-27.65L153.28-27.65Q156.29-33.92 165.50-33.92L165.50-33.92L165.50-33.92Q169.98-33.92 171.87-32.03L171.87-32.03L171.87-32.03Q173.76-30.14 173.76-25.92L173.76-25.92L173.76-25.92Q173.76-21.95 171.71-12.67L171.71-12.67L171.71-12.67Q170.75-8.51 170.75-6.94L170.75-6.94L170.75-6.94Q170.75-5.38 171.62-4.48L171.62-4.48L171.62-4.48Q172.48-3.58 173.76-3.46L173.76-3.46L173.76-3.46Q173.12-1.28 170.91 0L170.91 0L170.91 0Q168.70 1.28 165.82 1.28ZM192.83 1.28L192.83 1.28L192.83 1.28Q178.75 1.28 178.75-11.97L178.75-11.97L178.75-11.97Q178.75-21.38 183.94-27.46L183.94-27.46L183.94-27.46Q189.44-33.92 198.98-33.92L198.98-33.92L198.98-33.92Q205.89-33.92 209.41-30.72L209.41-30.72L209.41-30.72Q212.93-27.52 212.93-20.80L212.93-20.80L212.93-20.80Q212.93-10.56 207.42-4.61L207.42-4.61L207.42-4.61Q202.05 1.28 192.83 1.28ZM194.50-26.56L194.50-26.56L194.50-26.56Q193.73-24.83 193.12-22.24L193.12-22.24L193.12-22.24Q192.51-19.65 191.74-15.55L191.74-15.55L191.74-15.55Q190.98-11.46 190.98-6.40L190.98-6.40L190.98-6.40Q190.98-4.74 191.52-3.65L191.52-3.65L191.52-3.65Q192.06-2.56 193.54-2.56L193.54-2.56L193.54-2.56Q195.01-2.56 195.94-3.26L195.94-3.26L195.94-3.26Q196.86-3.97 197.57-5.63L197.57-5.63L197.57-5.63Q198.85-8.58 199.87-14.05L199.87-14.05L199.87-14.05Q200.90-19.52 200.99-21.89L200.99-21.89L200.99-21.89Q201.09-24.26 201.09-26.02L201.09-26.02L201.09-26.02Q201.09-27.78 200.58-28.93L200.58-28.93L200.58-28.93Q200.06-30.08 198.62-30.08L198.62-30.08L198.62-30.08Q197.18-30.08 196.22-29.18L196.22-29.18L196.22-29.18Q195.26-28.29 194.50-26.56ZM232-3.52L232-3.52L232-3.52Q230.02 1.28 223.68 1.28L223.68 1.28L223.68 1.28Q220.48 1.28 218.43-0.96L218.43-0.96L218.43-0.96Q216.77-2.82 216.77-4.93L216.77-4.93L216.77-4.93Q216.77-9.73 219.01-20.22L219.01-20.22L223.68-44.80L236.67-46.08L230.46-13.70L230.46-13.70Q229.38-8.96 229.38-7.30L229.38-7.30L229.38-7.30Q229.38-3.65 232-3.52ZM251.39 1.28L251.39 1.28L251.39 1.28Q237.31 1.28 237.31-11.97L237.31-11.97L237.31-11.97Q237.31-21.38 242.50-27.46L242.50-27.46L242.50-27.46Q248.00-33.92 257.54-33.92L257.54-33.92L257.54-33.92Q264.45-33.92 267.97-30.72L267.97-30.72L267.97-30.72Q271.49-27.52 271.49-20.80L271.49-20.80L271.49-20.80Q271.49-10.56 265.98-4.61L265.98-4.61L265.98-4.61Q260.61 1.28 251.39 1.28ZM253.06-26.56L253.06-26.56L253.06-26.56Q252.29-24.83 251.68-22.24L251.68-22.24L251.68-22.24Q251.07-19.65 250.30-15.55L250.30-15.55L250.30-15.55Q249.54-11.46 249.54-6.40L249.54-6.40L249.54-6.40Q249.54-4.74 250.08-3.65L250.08-3.65L250.08-3.65Q250.62-2.56 252.10-2.56L252.10-2.56L252.10-2.56Q253.57-2.56 254.50-3.26L254.50-3.26L254.50-3.26Q255.42-3.97 256.13-5.63L256.13-5.63L256.13-5.63Q257.41-8.58 258.43-14.05L258.43-14.05L258.43-14.05Q259.46-19.52 259.55-21.89L259.55-21.89L259.55-21.89Q259.65-24.26 259.65-26.02L259.65-26.02L259.65-26.02Q259.65-27.78 259.14-28.93L259.14-28.93L259.14-28.93Q258.62-30.08 257.18-30.08L257.18-30.08L257.18-30.08Q255.74-30.08 254.78-29.18L254.78-29.18L254.78-29.18Q253.82-28.29 253.06-26.56ZM279.81-26.75L279.81-26.75L279.81-26.75Q281.98-29.82 285.28-31.87L285.28-31.87L285.28-31.87Q288.58-33.92 292.61-33.92L292.61-33.92L292.61-33.92Q296.64-33.92 298.56-32.64L298.56-32.64L311.10-33.92L306.75-9.34L306.75-9.34Q304.51 3.20 299.78 8.13L299.78 8.13L299.78 8.13Q295.23 12.80 286.40 12.80L286.40 12.80L286.40 12.80Q279.68 12.80 275.84 10.69L275.84 10.69L275.84 10.69Q272 8.58 272 5.06L272 5.06L272 5.06Q272 2.43 273.98 0.93L273.98 0.93L273.98 0.93Q275.97-0.58 279.04-0.58L279.04-0.58L279.04-0.58Q281.73-0.58 283.78 0.64L283.78 0.64L283.78 0.64Q284.99 1.28 285.57 2.18L285.57 2.18L285.57 2.18Q284.10 3.46 284.10 5.57L284.10 5.57L284.10 5.57Q284.10 8.32 286.66 8.32L286.66 8.32L286.66 8.32Q290.94 8.32 293.38-1.79L293.38-1.79L293.38-1.79Q294.08-4.54 294.66-7.30L294.66-7.30L294.66-7.30Q291.78-3.78 285.25-3.78L285.25-3.78L285.25-3.78Q280.70-3.78 278.08-5.95L278.08-5.95L278.08-5.95Q275.46-8.13 275.46-13.25L275.46-13.25L275.46-13.25Q275.46-16.45 276.54-20.06L276.54-20.06L276.54-20.06Q277.63-23.68 279.81-26.75ZM288.13-13.06L288.13-13.06L288.13-13.06Q288.13-8.70 290.37-8.70L290.37-8.70L290.37-8.70Q291.90-8.70 293.38-10.37L293.38-10.37L293.38-10.37Q294.53-11.71 294.98-13.70L294.98-13.70L298.24-30.14L298.24-30.14Q297.92-30.21 297.60-30.34L297.60-30.34L297.60-30.34Q296.96-30.59 296.13-30.59L296.13-30.59L296.13-30.59Q292.22-30.59 289.92-24.19L289.92-24.19L289.92-24.19Q288.13-19.20 288.13-13.06ZM328.96-3.52L328.96-3.52L328.96-3.52Q326.98 1.28 320.64 1.28L320.64 1.28L320.64 1.28Q317.38 1.28 315.33-0.96L315.33-0.96L315.33-0.96Q313.60-2.94 313.60-4.93L313.60-4.93L313.60-4.93Q313.60-10.11 315.97-20.22L315.97-20.22L318.34-32.64L331.33-33.92L327.42-13.70L327.42-13.70Q326.34-8.96 326.34-7.30L326.34-7.30L326.34-7.30Q326.34-3.65 328.96-3.52ZM319.49-41.54L319.49-41.54L319.49-41.54Q319.49-44.03 321.57-45.38L321.57-45.38L321.57-45.38Q323.65-46.72 326.66-46.72L326.66-46.72L326.66-46.72Q329.66-46.72 331.49-45.38L331.49-45.38L331.49-45.38Q333.31-44.03 333.31-41.54L333.31-41.54L333.31-41.54Q333.31-39.04 331.30-37.76L331.30-37.76L331.30-37.76Q329.28-36.48 326.27-36.48L326.27-36.48L326.27-36.48Q323.26-36.48 321.38-37.76L321.38-37.76L321.38-37.76Q319.49-39.04 319.49-41.54ZM359.36-37.12L359.36-37.12L359.36-37.12Q360.26-38.66 360.26-40.32L360.26-40.32L360.26-40.32Q360.26-43.26 358.46-43.26L358.46-43.26L358.46-43.26Q355.71-43.26 354.56-37.63L354.56-37.63L353.60-32.64L359.42-32.64L359.04-29.76L353.02-29.76L347.26 0L334.34 1.28L340.48-29.76L335.94-29.76L336.51-32.64L340.99-32.64L342.34-37.70L342.34-37.70Q343.49-42.37 348.42-44.54L348.42-44.54L348.42-44.54Q352-46.08 358.02-46.08L358.02-46.08L358.02-46.08Q364.03-46.08 366.72-44.54L366.72-44.54L366.72-44.54Q369.41-43.01 369.41-40.96L369.41-40.96L369.41-40.96Q369.41-38.91 367.81-37.63L367.81-37.63L367.81-37.63Q366.21-36.35 364.42-36.35L364.42-36.35L364.42-36.35Q360.90-36.35 359.36-37.12ZM379.20-7.23L379.20-7.23L379.20-7.23Q375.87-3.78 369.79-3.78L369.79-3.78L369.79-3.78Q362.18-3.78 360.58-9.34L360.58-9.34L360.58-9.34Q360.06-11.01 360.06-12.86L360.06-12.86L360.06-12.86Q360.06-14.72 360.45-16.64L360.45-16.64L363.46-32.64L376.45-33.92L372.93-15.30L372.93-15.30Q372.80-14.46 372.61-13.57L372.61-13.57L372.61-13.57Q372.42-12.67 372.42-11.74L372.42-11.74L372.42-11.74Q372.42-10.82 372.74-10.21L372.74-10.21L372.74-10.21Q373.06-9.60 373.50-9.22L373.50-9.22L373.50-9.22Q374.27-8.70 375.65-8.70L375.65-8.70L375.65-8.70Q377.02-8.70 378.21-10.37L378.21-10.37L378.21-10.37Q379.39-12.03 379.97-14.91L379.97-14.91L383.49-32.64L396.10-33.92L391.30-8.77L391.30-8.77Q388.93 3.52 384.06 8.38L384.06 8.38L384.06 8.38Q381.57 10.88 378.34 11.87L378.34 11.87L378.34 11.87Q375.10 12.86 370.94 12.86L370.94 12.86L370.94 12.86Q364.22 12.86 360.38 10.75L360.38 10.75L360.38 10.75Q356.54 8.64 356.54 5.12L356.54 5.12L356.54 5.12Q356.54 2.50 358.53 0.99L358.53 0.99L358.53 0.99Q360.51-0.51 363.58-0.51L363.58-0.51L363.58-0.51Q366.27-0.51 368.32 0.64L368.32 0.64L368.32 0.64Q369.54 1.34 370.11 2.24L370.11 2.24L370.11 2.24Q368.64 3.52 368.64 5.63L368.64 5.63L368.64 5.63Q368.64 8.45 371.20 8.45L371.20 8.45L371.20 8.45Q375.42 8.45 377.86-1.28L377.86-1.28L377.86-1.28Q378.56-4.16 379.20-7.23Z" fill="#ccc"></path></g></g><style>text { font-size: 64px; font-family: Arial Black; dominant-baseline: central; text-anchor: middle; }</style></svg> 