<?xml version="1.0" standalone="no"?>
<!DOCTYPE svg PUBLIC "-//W3C//DTD SVG 20010904//EN"
 "http://www.w3.org/TR/2001/REC-SVG-20010904/DTD/svg10.dtd">
<svg version="1.0" xmlns="http://www.w3.org/2000/svg"
 width="700.000000pt" height="700.000000pt" viewBox="0 0 700.000000 700.000000"
 preserveAspectRatio="xMidYMid meet">
<metadata>
Created by potrace 1.14, written by Peter Selinger 2001-2017
</metadata>
<g transform="translate(0.000000,700.000000) scale(0.100000,-0.100000)"
fill="#000000" stroke="none">
<path d="M3805 5984 c-208 -31 -453 -123 -573 -214 -48 -37 -58 -40 -96 -36
-48 6 -78 -9 -81 -41 0 -11 -11 -32 -23 -48 -26 -32 -27 -48 -8 -64 12 -10 9
-22 -20 -76 -64 -119 -96 -244 -95 -375 0 -67 9 -138 18 -153 3 -5 -3 -17 -13
-28 -22 -25 -9 -52 27 -57 42 -7 48 -18 32 -65 -47 -135 -41 -234 18 -302 17
-19 45 -40 63 -46 33 -12 33 -12 17 -40 -20 -35 -6 -64 32 -64 14 -1 32 -7 41
-14 9 -7 27 -11 41 -8 22 4 31 -3 57 -41 17 -25 57 -69 88 -99 31 -29 65 -68
75 -86 17 -33 17 -34 -9 -86 -31 -60 -95 -128 -161 -170 -42 -26 -48 -28 -102
-19 -237 39 -533 -91 -789 -346 -205 -205 -363 -445 -489 -741 -67 -158 -137
-398 -129 -442 7 -39 9 -40 85 -78 38 -20 69 -42 69 -49 0 -8 -7 -41 -15 -73
-15 -60 -22 -94 -31 -153 -2 -19 -7 -46 -9 -60 -3 -14 -7 -42 -10 -62 -3 -21
-7 -53 -9 -70 -10 -67 -15 -117 -31 -273 -3 -33 -8 -78 -10 -100 -3 -22 -7
-125 -11 -230 -6 -183 -6 -191 14 -208 17 -16 24 -17 43 -7 21 12 77 9 139 -5
14 -3 34 -8 45 -9 11 -2 47 -8 80 -14 81 -15 105 -19 215 -32 143 -17 146 -17
166 -27 11 -5 37 -6 59 -3 22 3 61 2 87 -1 62 -7 399 -4 608 6 199 10 663 9
965 -1 413 -15 1002 -8 1135 12 19 3 41 12 49 19 14 14 18 97 7 150 -6 29 -26
141 -66 365 -10 58 -32 175 -49 260 -28 144 -53 283 -65 355 -2 17 -7 44 -11
60 -7 40 1 50 59 72 71 26 75 37 44 130 -24 72 -33 103 -44 158 -2 11 -8 43
-14 70 -5 28 -12 64 -15 80 -2 17 -9 55 -15 85 -6 30 -13 71 -16 90 -12 74
-54 238 -79 308 -81 225 -265 449 -495 603 -97 65 -100 67 -165 99 -69 34 -78
36 -95 15 -11 -13 -15 -13 -39 1 -30 18 -101 109 -101 130 0 8 9 14 19 14 57
0 180 76 258 159 101 106 151 249 155 438 1 89 4 102 30 142 41 65 51 111 63
293 5 88 3 90 -72 103 -40 6 -43 9 -43 38 -1 18 -3 49 -6 70 -4 28 -2 37 9 37
27 0 48 48 48 107 0 39 -7 70 -26 108 l-25 53 19 34 c39 66 35 163 -6 179 -13
5 -21 14 -18 19 10 17 -5 49 -26 55 -14 5 -18 12 -13 30 5 21 1 25 -33 33 -21
6 -54 13 -73 16 -76 13 -120 27 -294 91 -117 42 -215 50 -361 29z m833 -1012
c5 -31 -15 -27 -21 3 -3 16 0 24 7 22 6 -2 12 -13 14 -25z"/>
</g>
</svg>
